<?xml version="1.0" encoding="utf-8"?>
<!-- Generator: Adobe Illustrator 25.0.0, SVG Export Plug-In . SVG Version: 6.00 Build 0)  -->
<svg version="1.1" id="Calque_1" xmlns="http://www.w3.org/2000/svg" xmlns:xlink="http://www.w3.org/1999/xlink" x="0px" y="0px"
	 viewBox="0 0 50.5 21.8" style="enable-background:new 0 0 50.5 21.8;" xml:space="preserve">
<style type="text/css">
	.st0{fill:none;stroke:#010202;stroke-linecap:round;stroke-linejoin:round;stroke-miterlimit:10;}
</style>
<path class="st0" d="M0.9,3.4C0.7,5.7,0.6,11,0.5,13.3c1.9-0.3,3.9-0.5,5.8-0.8"/>
<path class="st0" d="M4.8,9.2c0.6-1.6,2.6-5.4,3.8-6.6c0.8,3.9,1.3,7.9,1.5,11.8"/>
<path class="st0" d="M13.1,12.6c0.1,0.5,0.2,1,0.2,1.5c-0.5-3-1.1-6.1-1.6-9.1c1,1.8,1.7,3.2,3.2,4.7c0.5-2.1,1.2-4.2,2-6.2
	c0,4.4,0.4,8.9,1.3,13.2"/>
<path class="st0" d="M30.3,5.3c-0.4,2.9-0.3,5.9,0.3,8.7c1.3-0.6,2.5-1.1,3.8-1.7"/>
<path class="st0" d="M37.9,12.5c0.2,0.4,0.1,1-0.3,1.3c-0.4-2.7-0.8-5.4-1.2-8.2C36.3,4.5,38,3.8,39,4.5c0.7,0.6,0.8,1.6,0.6,2.4
	s-0.9,1.5-1.5,2.2c-0.2,0.2-0.6,0.5-0.9,0.3c2.9,1.9,5.4,4.3,7.6,7.1"/>
<path class="st0" d="M44.6,10.2c-0.3-2.8-0.5-5.7-0.8-8.5"/>
<path class="st0" d="M36.6,1.5c4.3-0.8,8.7-1.1,13.1-1"/>
<path class="st0" d="M28,9.8c1.2-0.5,3.4-1.5,4.7-2"/>
<path class="st0" d="M30.5,5.3c0.8-0.5,1.5-1.1,2.3-1.6"/>
<path class="st0" d="M50,14.5c0.1,2.3-1,4.6-2.9,6c-0.7,0.5-1.5,0.9-2.3,0.9c-0.8,0-1.7-0.5-1.9-1.3"/>
<path class="st0" d="M2.7,16.3c-0.1,1.2-0.4,1.5-0.9,2.6c0-0.1,0.1-0.2,0.1-0.3"/>
<path class="st0" d="M21.8,5.7c0.3,1.9,0.9,5.4,1.3,7.2"/>
<path class="st0" d="M22.4,14.3c1,0.1,2.1-0.2,2.9-0.8c0.8-0.7,1.2-1.7,1-2.7S24.9,9,23.9,9.2"/>
<path class="st0" d="M20.8,4.8c1-0.4,2.1-0.4,3,0c0.9,0.4,1.7,1.3,1.7,2.4s-0.8,2-1.8,2.1"/>
</svg>
